<?xml version="1.0" encoding="UTF-8"?>
<svg width="32" height="32" viewBox="0 0 32 32" fill="none" xmlns="http://www.w3.org/2000/svg">
    <rect width="32" height="32" rx="8" fill="white"/>
    <defs>
        <linearGradient id="rocket-gradient" x1="0" y1="0" x2="32" y2="32" gradientUnits="userSpaceOnUse">
            <stop offset="0%" stop-color="#4361ee"/>
            <stop offset="100%" stop-color="#4895ef"/>
        </linearGradient>
    </defs>
    <g transform="translate(8, 4)">
        <path d="M8 2C6.1 5.8 3.8 9.3 1 12.3V18.6L-1 20.6V23.4L3 19.4V13.1C5.4 10.5 7.4 7.5 9 4.2L8 2Z" fill="url(#rocket-gradient)"/>
        <path d="M8 2C9.9 5.8 12.2 9.3 15 12.3V18.6L17 20.6V23.4L13 19.4V13.1C10.6 10.5 8.6 7.5 7 4.2L8 2Z" fill="url(#rocket-gradient)"/>
        <path d="M8 24L4 20H12L8 24Z" fill="url(#rocket-gradient)"/>
    </g>
</svg> 